# xmcd CD database file
#
# Track frame offsets:
#	150
#	16525
#	34573
#	59839
#
# Disc length: 1049 seconds
#
# Revision: 0
# Processed by: cddbd v1.5.1PL2 Copyright (c) Steve Scherf et al.
# Submitted via: CDex 1.51
#
DISCID=27041704
DTITLE=すかんち - SCANCH'N ROLL SHOW ?
DYEAR=2006
DGENRE=Rock
TTITLE0=恋のスカンチンロールショウ
TTITLE1=涙(But) no regret
TTITLE2=Sweet Sweet Candy
TTITLE3=伝説のスカンチンロールショウ
EXTD=YEAR: 2006
EXTT0=
EXTT1=
EXTT2=
EXTT3=
PLAYORDER=
